# xmcd CD database file
#
# Track frame offsets:
#	150
#	18027
#	26713
#	46171
#	57105
#	71064
#	80465
#	87174
#	95819
#	100319
#	108620
#	121309
#	143495
#	155216
#	160215
#	172188
#	184604
#	195707
#
# Disc length: 2805 seconds
#
# Revision: 1
# Processed by: cddbd v1.5.2PL0 Copyright (c) Steve Scherf et al.
# Submitted via: CDex 1.70beta2
#
DISCID=f20af312
DTITLE=Vangelis - El Greco
DYEAR=2007
DGENRE=Soundtrack
TTITLE0=Vangelis, Παπαθανασίου Βαγγέλης, Σμαραγδής Γιάννης, Smaragdis Iannis/El Greco Part 01
TTITLE1=Vangelis, Παπαθανασίου Βαγγέλης, Σμαραγδής Γιάννης, Smaragdis Iannis/El Greco Part 02
TTITLE2=Vangelis, Παπαθανασίου Βαγγέλης, Σμαραγδής Γιάννης, Smaragdis Iannis/El Greco Part 03
TTITLE3=Vangelis, Παπαθανασίου Βαγγέλης, Σμαραγδής Γιάννης, Smaragdis Iannis/El Greco Part 04
TTITLE4=Vangelis, Παπαθανασίου Βαγγέλης, Σμαραγδής Γιάννης, Smaragdis Iannis, Κρητικές Μαδάρες, Kritikes Madares/El Greco Part 05
TTITLE5=Vangelis, Παπαθανασίου Βαγγέλης, Σμαραγδής Γιάννης, Smaragdis Iannis/El Greco Part 06
TTITLE6=Vangelis, Παπαθανασίου Βαγγέλης, Σμαραγδής Γιάννης, Smaragdis Iannis/El Greco Part 07
TTITLE7=Vangelis, Παπαθανασίου Βαγγέλης, Σμαραγδής Γιάννης, Smaragdis Iannis, Ψαραντώνης, Psarantonis/El Greco Part 08
TTITLE8=Vangelis, Παπαθανασίου Βαγγέλης, Σμαραγδής Γιάννης, Smaragdis Iannis/El Greco Part 09
TTITLE9=Vangelis, Παπαθανασίου Βαγγέλης, Σμαραγδής Γιάννης, Smaragdis Iannis/El Greco Part 10
TTITLE10=Vangelis, Παπαθανασίου Βαγγέλης, Σμαραγδής Γιάννης, Smaragdis Iannis, Λουδοβίκος των Ανωγείων, Loudovicos ton Anogion/El Greco Part 11
TTITLE11=Vangelis, Παπαθανασίου Βαγγέλης, Σμαραγδής Γιάννης, Smaragdis Iannis/El Greco Part 12
TTITLE12=Vangelis, Παπαθανασίου Βαγγέλης, Σμαραγδής Γιάννης, Smaragdis Iannis/El Greco Part 13
TTITLE13=Vangelis, Παπαθανασίου Βαγγέλης, Σμαραγδής Γιάννης, Smaragdis Iannis/El Greco Part 14
TTITLE14=Vangelis, Παπαθανασίου Βαγγέλης, Σμαραγδής Γιάννης, Smaragdis Iannis/El Greco Part 15
TTITLE15=Vangelis, Παπαθανασίου Βαγγέλης, Σμαραγδής Γιάννης, Smaragdis Iannis/El Greco Part 16
TTITLE16=Vangelis, Παπαθανασίου Βαγγέλης, Σμαραγδής Γιάννης, Smaragdis Iannis/El Greco Part 17
TTITLE17=Vangelis, Παπαθανασίου Βαγγέλης, Σμαραγδής Γιάννης, Smaragdis Iannis/El Greco Part 18
EXTD=YEAR: 2007
EXTT0=
EXTT1=
EXTT2=
EXTT3=
EXTT4=
EXTT5=
EXTT6=
EXTT7=
EXTT8=
EXTT9=
EXTT10=
EXTT11=
EXTT12=
EXTT13=
EXTT14=
EXTT15=
EXTT16=
EXTT17=
PLAYORDER=
